<svg class="svg-icon" style="width: 1em; height: 1em;vertical-align: middle;fill: currentColor;overflow: hidden;" viewBox="0 0 1024 1024" version="1.1" xmlns="http://www.w3.org/2000/svg"><path d="M718.72 693.12c0-9.472 1.056-18.88 3.2-28.16a101.44 101.44 0 0 1 9.28-24.96 134.4 134.4 0 0 1 15.68-23.04 244.8 244.8 0 0 1 22.08-23.04l18.56-17.28a102.4 102.4 0 0 0 12.16-12.48c2.848-3.52 5.216-7.36 7.04-11.52a42.56 42.56 0 0 0 3.52-12.48c0.32-5.12 0.32-10.24 0-15.36a22.72 22.72 0 0 0-22.4-28.16 20.8 20.8 0 0 0-21.44 13.12 45.44 45.44 0 0 0-3.52 14.08v16.96h-44.16v-7.68a65.92 65.92 0 0 1 16.96-48.64 72.96 72.96 0 0 1 53.44-16.96 71.68 71.68 0 0 1 51.2 16 60.8 60.8 0 0 1 16.64 45.76 101.76 101.76 0 0 1-1.92 20.16 76.16 76.16 0 0 1-6.08 17.92 84.48 84.48 0 0 1-10.88 16.96 163.52 163.52 0 0 1-16.32 16.64l-25.6 23.68a96 96 0 0 0-16 17.92 53.12 53.12 0 0 0-7.36 15.36h85.44v35.2h-139.52z m-384.64-115.2v-250.24h67.52v365.44H317.76l-90.24-256v256H160V327.68h84.48l89.6 250.24z m115.84-144a169.28 169.28 0 0 1 18.56-60.8 96 96 0 0 1 37.76-39.04 161.92 161.92 0 0 1 132.16 0 96 96 0 0 1 37.76 39.04 169.92 169.92 0 0 1 16.96 60.16 768 768 0 0 1 0 153.28 169.6 169.6 0 0 1-16.96 59.84 89.6 89.6 0 0 1-37.76 38.4 170.56 170.56 0 0 1-132.16 0 89.92 89.92 0 0 1-37.76-38.4 168.96 168.96 0 0 1-16.96-59.84 768 768 0 0 1-1.6-152.64z m71.68 139.2c0.64 14.24 3.008 28.288 7.04 41.92 2.56 9.28 7.936 17.6 15.36 23.68a50.56 50.56 0 0 0 52.8 0c7.424-6.08 12.8-14.4 15.36-23.68 4.064-13.6 6.4-27.68 7.04-41.92 1.28-17.28 1.92-38.592 1.92-64 0-25.376-0.64-46.72-1.92-64a176.64 176.64 0 0 0-7.04-41.92 46.72 46.72 0 0 0-15.36-23.68 50.56 50.56 0 0 0-52.8 0c-7.424 6.144-12.8 14.4-15.36 23.68a178.24 178.24 0 0 0-7.04 41.92c-1.28 17.088-1.92 38.4-1.92 64s0.64 46.944 1.92 64z"  /></svg>